:SAMPLES-PER-SECOND 30
:FULLY-SPECIFIED
:DEGREES
145
root  34.76380175 36.58163716 -14.02377482 10.27000141 -4.450653553 4.245751858
lowerback  -7.80725956 0.1118250191 -1.07166028
upperback  -4.042910099 0.8004620075 -4.689479828
thorax  0.2507149875 0.5990149975 -4.186860085
lowerneck  -7.055580139 -14.64750004 -9.568940163
upperneck  14.35779953 -20.57500076 13.40970039
head  8.003640175 -9.16656971 3.689960003
lclavicle  0 -4.497500157e-015 -2.743230041e-014
lhumerus  -47.46879959 30.70100021 61.15859985
lradius  0.001172923949 -6.507048965e-006 29.13389778
lwrist  3.192251654e-007 -3.790274832e-007 -29.86300087
lhand  -4.426003855e-031 -37.07820129 -10.80109978
lfingers  90 7.125020027 -90
lthumb  94.92688575 -25.62808275 101.2713858
rclavicle  0 -4.497500157e-015 -2.743230041e-014
rhumerus  19.99640274 -35.95669937 -40.5768013
rradius  -5.16745672e-007 2.214343908e-008 41.04759979
rwrist  0.0003490542294 -0.002273720223 -158.9219971
rhand  -1.772030049e-031 4.896699905 -6.091020107
rfingers  -90 -7.125020027 -90
rthumb  -84.21112968 -9.804137589 -59.23168807
rfemur  -11.40314674 14.68322277 11.88639355
rtibia  -0.4338327944 -1.876443863 18.08185959
rfoot  1.668402791 -22.28314972 -34.56376266
rtoes  4.01554355 19.60892992 -101.8146032
lfemur  -2.054203749 -16.5420475 -24.10510254
ltibia  8.535587311 -0.9430838227 3.826544285
lfoot  0.2681629658 -19.01867867 36.26098633
ltoes  -8.581101975 -18.13404528 -115.8654043
146
root  34.76327911 36.58209973 -14.02878198 10.2696867 -4.407595634 4.250536442
lowerback  -7.795609474 0.121505022 -1.048870087
upperback  -4.047389984 0.8136259913 -4.713970184
thorax  0.2409950048 0.6059259772 -4.224540234
lowerneck  -7.004930019 -14.67599964 -9.602370262
upperneck  14.32509995 -20.62150002 13.48970032
head  7.999543667 -9.185799599 3.716559887
lclavicle  0 -4.497500157e-015 -2.743230041e-014
lhumerus  -47.45660019 30.70840073 61.10770035
lradius  0.001172923949 -6.507048965e-006 29.12630081
lwrist  3.192251654e-007 -3.790274832e-007 -29.89389992
lhand  -4.428270988e-031 -37.11700058 -10.7968998
lfingers  90 7.125020027 -90
lthumb  94.94423724 -25.62251014 101.3124866
rclavicle  0 -4.497500157e-015 -2.743230041e-014
rhumerus  20.07990265 -36.15779877 -40.65200043
rradius  -5.16745672e-007 2.214343908e-008 40.79219818
rwrist  0.0003490542294 -0.002273720223 -159.0339966
rhand  -0 5.116889954 -6.105410099
rfingers  -90 -7.125020027 -90
rthumb  -84.16230436 -9.80379832 -59.01740702
rfemur  -11.4323349 14.72394753 11.90056133
rtibia  -0.4610638618 -1.855203867 18.1241188
rfoot  1.654895067 -22.22465134 -34.61331177
rtoes  4.016858216 19.60867082 -101.8185206
lfemur  -2.051491737 -16.57750511 -24.09863091
ltibia  8.535544395 -0.931730032 3.825084448
lfoot  0.2773489356 -19.03991127 36.29128647
ltoes  -8.573393685 -18.13759486 -115.8406404
147
root  34.76313794 36.58070602 -14.03519938 10.25407314 -4.367188931 4.258574009
lowerback  -7.793699741 0.1252790391 -1.059090018
upperback  -4.059470177 0.8201239705 -4.711740017
thorax  0.2277420014 0.6097869873 -4.216030121
lowerneck  -6.985610008 -14.69830036 -9.611439705
upperneck  14.3093996 -20.65070152 13.4854002
head  7.998239994 -9.20223999 3.713490009
lclavicle  0 -4.497500157e-015 -2.743230041e-014
lhumerus  -47.457901 30.71680069 61.07120132
lradius  0.001172923949 -6.507048965e-006 29.09699821
lwrist  3.192251654e-007 -3.790274832e-007 -29.95630074
lhand  -4.421075406e-031 -36.99359894 -10.73900032
lfingers  90 7.125020027 -90
lthumb  94.87364258 -25.57032378 101.1749705
rclavicle  0 -4.497500157e-015 -2.743230041e-014
rhumerus  20.19999886 -36.38560104 -40.72299957
rradius  -5.16745672e-007 2.214343908e-008 40.4958992
rwrist  0.0003490542294 -0.002273720223 -159.0319977
rhand  -1.773272061e-031 5.344679832 -6.189730167
rfingers  -90 -7.125020027 -90
rthumb  -84.14803469 -9.744171156 -58.80205063
rfemur  -11.42978001 14.76475239 11.91156673
rtibia  -0.481844902 -1.834926963 18.14632225
rfoot  1.642255425 -22.16868019 -34.67941666
rtoes  4.002570987 19.61148178 -101.7759506
lfemur  -2.050392151 -16.64274788 -24.09619141
ltibia  8.535471916 -0.9596391916 3.82405448
lfoot  0.2613837421 -18.97423744 36.26719666
ltoes  -8.621687307 -18.11529044 -115.9958678
148
root  34.76401201 36.57909904 -14.04260951 10.2497406 -4.335731983 4.26649332
lowerback  -7.800620079 0.1461159736 -1.040240526
upperback  -4.058130264 0.8489279747 -4.736830235
thorax  0.2402330041 0.6244689822 -4.250579834
lowerneck  -6.985469818 -14.73320007 -9.596130371
upperneck  14.30010033 -20.70409966 13.51329994
head  8.003379822 -9.223340034 3.71172595
lclavicle  0 -4.497500157e-015 -2.743230041e-014
lhumerus  -47.40779877 30.6711998 61.06470108
lradius  0.001172923949 -6.507048965e-006 29.07509804
lwrist  3.192251654e-007 -3.790274832e-007 -29.96589851
lhand  -0 -36.94309998 -10.68309975
lfingers  90 7.125020027 -90
lthumb  94.83800898 -25.51723726 101.1159128
rclavicle  0 -4.497500157e-015 -2.743230041e-014
rhumerus  20.20070267 -36.58360291 -40.7010994
rradius  -5.16745672e-007 2.214343908e-008 40.22439957
rwrist  0.0003490542294 -0.002273720223 -159
rhand  -1.77228767e-031 4.99296999 -6.562530041
rfingers  -90 -7.125020027 -90
rthumb  -84.43170458 -9.404539094 -59.17832201
rfemur  -11.43411446 14.81553268 11.91433525
rtibia  -0.5019326806 -1.837557554 18.15359116
rfoot  1.626367092 -22.15167236 -34.76103592
rtoes  3.999514057 19.61208186 -101.766843
lfemur  -2.05424118 -16.68936348 -24.09553337
ltibia  8.535372734 -0.9789837599 3.823657751
lfoot  0.2584455013 -18.92694283 36.2644577
ltoes  -8.641864051 -18.10592539 -116.0607756
